<?xml version="1.0" encoding="utf-8"?>
<!-- Generator: Adobe Illustrator 21.0.0, SVG Export Plug-In . SVG Version: 6.00 Build 0)  -->
<svg version="1.1" id="Layer_1" xmlns="http://www.w3.org/2000/svg" xmlns:xlink="http://www.w3.org/1999/xlink" x="0px" y="0px"
	 viewBox="0 0 122 35" style="enable-background:new 0 0 122 35;" xml:space="preserve">
<style type="text/css">
	.st0{fill:#535353;}
	.st1{fill:#FFFFFF;}
	.st2{fill:#848484;}
</style>
<title>logo</title>
<desc>Created with Sketch.</desc>
<g id="Page-1">
	<g id="logo">
		<path id="Shape" class="st0" d="M29.4,0C32.5,0,35,2.5,35,5.6v23.8c0,3.1-2.5,5.6-5.6,5.6H5.6C2.5,35,0,32.5,0,29.4V5.6
			C0,2.5,2.5,0,5.6,0"/>
		<path id="Shape_1_" class="st1" d="M9,9c1.2-1.2,3.1-1.2,4.2,0l6.8,6.8l1.3-1.3l-6.8-6.8c-1.9-1.9-4.9-1.9-6.8,0s-1.9,4.9,0,6.8
			L9,15.9l1.3-1.3L9,13.2C7.8,12,7.8,10.1,9,9"/>
		<path id="Shape_2_" class="st1" d="M26,26c-1.2,1.2-3.1,1.2-4.2,0L15,19.2l-1.3,1.3l6.8,6.8c1.9,1.9,4.9,1.9,6.8,0
			c1.9-1.9,1.9-4.9,0-6.8L26,19.1l-1.3,1.3l1.4,1.4C27.2,23,27.2,24.9,26,26"/>
		<path id="Shape_3_" class="st1" d="M26,9c1.2,1.2,1.2,3.1,0,4.2L19.2,20l1.3,1.3l6.8-6.8c1.9-1.9,1.9-4.9,0-6.8
			c-1.9-1.9-4.9-1.9-6.8,0L19.1,9l1.3,1.3L21.8,9C23,7.8,24.9,7.8,26,9"/>
		<path id="Shape_4_" class="st1" d="M9,26c-1.2-1.2-1.2-3.1,0-4.2l6.8-6.8l-1.3-1.3l-6.8,6.8c-1.9,1.9-1.9,4.9,0,6.8
			c1.9,1.9,4.9,1.9,6.8,0l1.4-1.4l-1.3-1.3L13.2,26C12,27.2,10.1,27.2,9,26"/>
		<g id="Group" transform="translate(53.000000, 3.000000)">
			<path id="Shape_5_" class="st2" d="M2.1,16.4v9.8h-2V2.1h8.2c1.3,0,2.5,0.2,3.5,0.5s1.9,0.8,2.5,1.5c0.7,0.6,1.2,1.4,1.6,2.3
				s0.5,1.9,0.5,2.9c0,1.1-0.2,2.1-0.5,3c-0.3,0.9-0.9,1.6-1.5,2.2c-0.6,0.6-1.5,1.1-2.5,1.4c-1,0.3-2.2,0.5-3.5,0.5H2.1L2.1,16.4
				L2.1,16.4z M2.1,14.7h6.2c1.1,0,2-0.1,2.8-0.4c0.8-0.3,1.4-0.6,1.9-1.1s0.8-1,1.1-1.7c0.3-0.7,0.3-1.4,0.3-2.1
				c0-0.7-0.1-1.4-0.3-2.1C13.8,6.5,13.4,6,13,5.5c-0.5-0.5-1.1-0.9-1.9-1.2C10.3,4,9.4,3.9,8.3,3.9H2.1V14.7L2.1,14.7L2.1,14.7z"/>
			<polygon id="Shape_6_" class="st2" points="22.7,26.2 20.7,26.2 20.7,0.8 22.7,0.8 			"/>
			<path id="Shape_7_" class="st2" d="M35.1,26.6c-1.2,0-2.3-0.2-3.2-0.7c-1-0.4-1.8-1-2.5-1.8c-0.7-0.8-1.3-1.7-1.7-2.8
				c-0.4-1.1-0.7-2.2-0.7-3.5v-0.7c0-1.4,0.2-2.6,0.6-3.8c0.4-1.1,1-2.1,1.7-2.9C30,9.6,30.8,9,31.7,8.6C32.6,8.2,33.6,8,34.6,8
				c1.1,0,2.2,0.2,3,0.6c0.9,0.4,1.6,1,2.2,1.7c0.6,0.7,1.1,1.6,1.4,2.6s0.5,2.1,0.5,3.3v1.2H29v0.4c0,1,0.1,1.9,0.4,2.8
				c0.3,0.9,0.7,1.6,1.3,2.3c0.5,0.6,1.2,1.1,1.9,1.5c0.8,0.4,1.6,0.6,2.5,0.6c1.1,0,2-0.2,2.8-0.6c0.8-0.4,1.6-1,2.2-1.9l1.2,0.9
				c-0.3,0.4-0.6,0.8-1,1.2c-0.4,0.4-0.8,0.7-1.4,1c-0.6,0.3-1.1,0.5-1.8,0.7C36.4,26.5,35.9,26.6,35.1,26.6L35.1,26.6L35.1,26.6z
				 M34.7,9.6c-0.8,0-1.5,0.1-2.1,0.4c-0.6,0.3-1.2,0.7-1.7,1.2s-0.9,1.2-1.2,1.9c-0.3,0.7-0.5,1.6-0.6,2.5h10.8v-0.2
				c0-0.8-0.1-1.5-0.4-2.2c-0.2-0.7-0.5-1.3-1-1.9c-0.4-0.5-1-1-1.6-1.3C36.3,9.8,35.6,9.6,34.7,9.6L34.7,9.6L34.7,9.6z"/>
			<path id="Shape_8_" class="st2" d="M45.6,3.1c0-0.4,0.1-0.7,0.4-1c0.2-0.3,0.6-0.4,1-0.4s0.8,0.1,1,0.4s0.4,0.6,0.4,1
				S48.2,3.8,48,4c-0.2,0.3-0.6,0.4-1,0.4S46.2,4.3,46,4S45.6,3.5,45.6,3.1L45.6,3.1L45.6,3.1z M47.9,26.2h-2v-18h2V26.2L47.9,26.2
				L47.9,26.2z"/>
			<path id="Shape_9_" class="st2" d="M52.2,17c0-1.3,0.2-2.5,0.6-3.6c0.4-1.1,0.9-2.1,1.6-2.9c0.7-0.8,1.5-1.4,2.5-1.9
				s2.1-0.7,3.3-0.7s2.3,0.2,3.3,0.7s1.8,1.1,2.5,1.9s1.2,1.8,1.6,2.9s0.6,2.3,0.6,3.6v0.5c0,1.3-0.2,2.5-0.6,3.6S66.7,23.2,66,24
				s-1.5,1.4-2.5,1.9c-1,0.4-2.1,0.7-3.3,0.7s-2.3-0.2-3.3-0.7c-1-0.4-1.8-1.1-2.5-1.9c-0.7-0.8-1.2-1.8-1.6-2.9
				c-0.4-1.1-0.6-2.3-0.6-3.6V17L52.2,17L52.2,17z M54.2,17.6c0,1,0.1,1.9,0.4,2.8c0.3,0.9,0.7,1.7,1.2,2.3c0.5,0.7,1.1,1.2,1.9,1.6
				c0.8,0.4,1.6,0.6,2.6,0.6s1.8-0.2,2.6-0.6c0.7-0.4,1.4-0.9,1.9-1.6c0.5-0.7,0.9-1.4,1.2-2.3s0.4-1.8,0.4-2.8V17
				c0-1-0.1-1.9-0.4-2.8c-0.3-0.9-0.7-1.7-1.2-2.3c-0.5-0.7-1.1-1.2-1.9-1.6c-0.8-0.4-1.6-0.6-2.6-0.6s-1.8,0.2-2.6,0.6
				c-0.7,0.4-1.4,0.9-1.9,1.6c-0.5,0.7-0.9,1.5-1.2,2.3c-0.3,0.9-0.4,1.8-0.4,2.8V17.6L54.2,17.6L54.2,17.6z"/>
		</g>
	</g>
</g>
</svg>
