<?xml version="1.0" encoding="utf-8"?>
<!-- Generator: Adobe Illustrator 21.0.0, SVG Export Plug-In . SVG Version: 6.00 Build 0)  -->
<svg version="1.1" id="Layer_1" xmlns="http://www.w3.org/2000/svg" xmlns:xlink="http://www.w3.org/1999/xlink" x="0px" y="0px"
	 viewBox="0 0 26.7 24.5" style="enable-background:new 0 0 26.7 24.5;" xml:space="preserve">
<style type="text/css">
	.st0{fill:none;stroke:#468092;stroke-width:2;stroke-linejoin:round;stroke-miterlimit:10;}
	.st1{fill:#468092;}
</style>
<g id="XMLID_3_">
	<g id="XMLID_6_">
		<path id="XMLID_11_" class="st0" d="M5,6.6l6.9-4c0.7-0.4,1.6-0.4,2.2,0l6.9,4c0.7,0.4,1.1,1.1,1.1,1.9v7.9c0,0.8-0.4,1.5-1.1,1.9
			l-6.9,4c-0.7,0.4-1.6,0.4-2.2,0l-6.9-4c-0.7-0.4-1.1-1.1-1.1-1.9V8.6C3.9,7.8,4.3,7,5,6.6z"/>
	</g>
	<g id="XMLID_2_">
		<path id="XMLID_20_" class="st1" d="M19.9,10.3L13.2,17L12,18.2c-0.2,0.2-0.4,0.3-0.6,0.3c-0.2,0-0.5-0.1-0.6-0.3L9.5,17l-3.3-3.3
			C6,13.4,5.9,13.2,5.9,13s0.1-0.5,0.3-0.6l1.3-1.3c0.2-0.2,0.4-0.3,0.6-0.3c0.2,0,0.5,0.1,0.6,0.3l2.7,2.7l6.1-6.1
			c0.2-0.2,0.4-0.3,0.6-0.3c0.2,0,0.5,0.1,0.6,0.3L19.9,9c0.2,0.2,0.3,0.4,0.3,0.6C20.2,9.9,20.1,10.1,19.9,10.3z"/>
	</g>
</g>
</svg>
